<?xml version="1.0" encoding="iso-8859-1"?>
<!-- Generator: Adobe Illustrator 19.0.0, SVG Export Plug-In . SVG Version: 6.00 Build 0)  -->
<svg version="1.1" id="Capa_1" xmlns="http://www.w3.org/2000/svg" xmlns:xlink="http://www.w3.org/1999/xlink" x="0px" y="0px"
	 viewBox="0 0 479.8 479.8" style="enable-background:new 0 0 479.8 479.8;" xml:space="preserve">
<g>
	<path style="fill:#FDC75B;" d="M338.4,216.1c62,8.7,109.7,61.9,109.7,126.3c0,70.4-57.1,127.5-127.5,127.5
		c-48.4,0-90.6-27-112.1-66.8c-9.8-18.1-15.4-38.8-15.4-60.8c0-70.4,57.1-127.5,127.5-127.5C326.6,214.9,332.5,215.3,338.4,216.1z"
		/>
	<path style="fill:#FDC75B;" d="M236.7,10.1l101.7,106.8h-67.7c-18.8,0-34-15.2-34-34V10.1z"/>
</g>
<path style="fill:#ED664C;" d="M320.6,214.9c-70.4,0-127.5,57.1-127.5,127.5c0,22,5.6,42.7,15.4,60.8l-0.2,0.1h-133
	c-24.3,0-44-19.7-44-44V54.1c0-24.3,19.7-44,44-44h161.4v72.8c0,18.8,15.2,34,34,34h67.7v99.2l0,0
	C332.5,215.3,326.6,214.9,320.6,214.9z"/>
<path d="M348.7,207.7v-90.8c0-2.6-1.2-5-2.9-6.9L244,3.1c-1.9-2-4.6-3.1-7.3-3.1H75.3C45.5,0,21.7,24.3,21.7,54.1v305.2
	c0,29.8,23.8,53.7,53.6,53.7h127.4c24.8,42,69.4,66.8,117.9,66.8c75.8,0,137.5-61.6,137.5-137.5c0-33.4-11.9-65.5-33.9-90.6
	C404.3,229.1,377.7,213.7,348.7,207.7z M246.7,35.1L315,107h-44.3c-13.2,0-24-10.9-24-24.1V35.1z M41.7,359.3V54.1
	C41.7,35.3,56.6,20,75.3,20h151.4v62.9c0,24.3,19.7,44.1,44,44.1h58v78.1c-3-0.1-5.4-0.5-8-0.5c-34.9,0-67,13.4-91.2,34.4h-127
	c-5.5,0-10,4.5-10,10s4.5,10,10,10h108.4c-7.1,10-13,20-17.6,31h-90.8c-5.5,0-10,4.5-10,10s4.5,10,10,10h84.3
	c-2.5,10-3.8,21.1-3.8,32.2c0,17.5,3.3,34.8,9.7,50.8H75.3C56.6,393,41.7,378,41.7,359.3z M320.6,459.9
	c-43.1,0-82.8-23.6-103.4-61.5l0,0c-9.3-17.1-14.2-36.4-14.2-56c0-64.8,52.7-117.5,117.5-117.5c5.5,0,11,0.4,16.4,1.1
	c27.8,3.9,53.4,17.7,72,38.9c18.8,21.4,29.1,48.9,29.1,77.5C438.1,407.2,385.4,459.9,320.6,459.9z"/>
<path d="M102.5,209h101.3c5.5,0,10-4.5,10-10s-4.5-10-10-10H102.5c-5.5,0-10,4.5-10,10S97,209,102.5,209z"/>
<path d="M371.8,340.3l-41.1,44.3V275.4c0-5.5-4.5-10-10-10s-10,4.5-10,10v109.2l-41.4-44.3c-3.8-4-10.2-4.3-14.2-0.5
	c-4,3.8-4.3,10.1-0.5,14.1l58.5,62.9c1.9,2,4.5,3.2,7.3,3.2s5.4-1.2,7.3-3.2l58.5-62.9c3.8-4,3.6-10.4-0.4-14.1
	C381.8,336,375.6,336.3,371.8,340.3z"/>
<g>
</g>
<g>
</g>
<g>
</g>
<g>
</g>
<g>
</g>
<g>
</g>
<g>
</g>
<g>
</g>
<g>
</g>
<g>
</g>
<g>
</g>
<g>
</g>
<g>
</g>
<g>
</g>
<g>
</g>
</svg>
