<?xml version="1.0" encoding="iso-8859-1"?>
<!-- Generator: Adobe Illustrator 19.0.0, SVG Export Plug-In . SVG Version: 6.00 Build 0)  -->
<svg version="1.1" id="Capa_1" xmlns="http://www.w3.org/2000/svg" xmlns:xlink="http://www.w3.org/1999/xlink" x="0px" y="0px"
	 viewBox="0 0 512 512" style="enable-background:new 0 0 512 512;" xml:space="preserve">
<g>
	<path style="fill:#FEE8AF;" d="M443.733,145.067c-18.85,0-34.133-15.283-34.133-34.133c0,18.85-15.283,34.133-34.133,34.133H281.6
		V204.8c0.026,38.647,23.74,73.318,59.733,87.373v23.561c0,18.85,15.283,34.133,34.133,34.133s34.133-15.283,34.133-34.133v-23.561
		c35.994-14.054,59.708-48.725,59.733-87.373v-59.733L443.733,145.067L443.733,145.067z"/>
	<path style="fill:#FEE8AF;" d="M469.333,179.2H486.4c9.429,0,17.067,7.637,17.067,17.067l0,0c0,9.429-7.637,17.067-17.067,17.067
		h-17.067V179.2z"/>
</g>
<path style="fill:#0B9FBD;" d="M341.333,68.267v-25.6c0-18.85,15.283-34.133,34.133-34.133l0,0c18.85,0,34.133,15.283,34.133,34.133
	v25.6H341.333z"/>
<rect x="102.4" y="0" style="fill:#2AB69D;" width="17.067" height="187.733"/>
<g>
	<path style="fill:#42210B;" d="M358.4,204.8h-17.067v-8.533c0-4.71-3.823-8.533-8.533-8.533s-8.533,3.823-8.533,8.533v8.533H307.2
		v-8.533c0-14.14,11.46-25.6,25.6-25.6s25.6,11.46,25.6,25.6V204.8z"/>
	<path style="fill:#42210B;" d="M443.733,204.8h-17.067v-8.533c0-4.71-3.823-8.533-8.533-8.533s-8.533,3.823-8.533,8.533v8.533
		h-17.067v-8.533c0-14.14,11.46-25.6,25.6-25.6s25.6,11.46,25.6,25.6V204.8z"/>
</g>
<path style="fill:#E65848;" d="M349.867,230.4h51.2v8.533c0,14.14-11.46,25.6-25.6,25.6l0,0c-14.14,0-25.6-11.46-25.6-25.6V230.4z"
	/>
<path style="fill:#FEE8AF;" d="M281.6,179.2h-17.067c-9.429,0-17.067,7.637-17.067,17.067l0,0c0,9.429,7.637,17.067,17.067,17.067
	H281.6V179.2z"/>
<polygon style="fill:#2AB69D;" points="213.333,307.2 213.333,358.4 247.467,358.4 247.467,503.467 503.467,503.467 503.467,307.2 
	"/>
<g>
	<path style="fill:#E65848;" d="M401.067,409.6h-51.2c-3.123,0-5.999-1.707-7.492-4.446L288.93,307.2h19.456l46.549,85.333h41.071
		l46.549-85.333h19.627l-53.623,97.954C407.066,407.893,404.19,409.6,401.067,409.6z"/>
	<path style="fill:#E65848;" d="M88.866,0c-9.993-0.026-19.584,3.942-26.633,11.025c-3.857,3.874-9.097,6.05-14.566,6.042H0v102.4
		h47.667c9.993,0.026,19.584-3.942,26.633-11.025c3.857-3.874,9.097-6.05,14.566-6.042h30.601V0H88.866z"/>
</g>
<path style="fill:#FEE8AF;" d="M145.067,230.4l34.133,76.8h34.133v51.2h-45.158c-13.961,0-26.505-8.499-31.693-21.453L93.867,230.4
	v-51.2h51.2V230.4z"/>
<rect x="93.867" y="179.2" style="fill:#FDC536;" width="51.2" height="51.2"/>
<path style="fill:#0B9FBD;" d="M469.333,145.067L469.333,145.067c0-47.13-38.204-85.333-85.333-85.333h-17.067
	c-47.13,0-85.333,38.204-85.333,85.333h93.867c18.85,0,34.133-15.283,34.133-34.133l0,0c0,18.85,15.283,34.133,34.133,34.133
	H469.333z"/>
<rect x="341.333" y="392.533" style="fill:#FDC536;" width="68.267" height="85.333"/>
<path d="M341.333,204.8H358.4v-8.533c0-14.14-11.46-25.6-25.6-25.6s-25.6,11.46-25.6,25.6v8.533h17.067v-8.533
	c0-4.71,3.823-8.533,8.533-8.533s8.533,3.823,8.533,8.533V204.8z"/>
<path d="M409.6,196.267c0-4.71,3.823-8.533,8.533-8.533s8.533,3.823,8.533,8.533v8.533h17.067v-8.533c0-14.14-11.46-25.6-25.6-25.6
	s-25.6,11.46-25.6,25.6v8.533H409.6V196.267z"/>
<path d="M409.6,238.933v-17.067h-68.267v17.067c0,18.85,15.283,34.133,34.133,34.133S409.6,257.784,409.6,238.933z M358.4,238.933
	h34.133c0,9.429-7.637,17.067-17.067,17.067C366.037,256,358.4,248.363,358.4,238.933z"/>
<path d="M503.467,298.667h-85.333v-0.896c30.729-14.157,52.497-42.556,58.189-75.904H486.4c14.14,0,25.6-11.46,25.6-25.6
	s-11.46-25.6-25.6-25.6h-8.533v-25.6c-0.06-38.63-23.757-73.284-59.733-87.347V42.667C418.133,19.106,399.027,0,375.467,0
	S332.8,19.106,332.8,42.667V57.72c-35.977,14.063-59.674,48.717-59.733,87.347v25.6h-8.533c-14.14,0-25.6,11.46-25.6,25.6
	s11.46,25.6,25.6,25.6h10.078c5.692,33.348,27.46,61.747,58.189,75.904v0.896H184.738L153.6,228.591V179.2
	c0-4.71-3.823-8.533-8.533-8.533h-25.6V0H88.866c-9.993-0.026-19.584,3.942-26.633,11.025c-3.857,3.874-9.097,6.05-14.566,6.042H0
	v102.4h47.667c9.993,0.026,19.584-3.942,26.633-11.025c3.857-3.874,9.097-6.05,14.566-6.042H102.4v68.267h-8.533
	c-4.71,0-8.533,3.823-8.533,8.533v51.2c0,1.084,0.205,2.167,0.606,3.174l42.615,106.539c6.434,16.239,22.153,26.88,39.62,26.82
	h70.758v136.533c0,4.71,3.823,8.533,8.533,8.533h256c4.71,0,8.533-3.823,8.533-8.533V307.2
	C512,302.49,508.177,298.667,503.467,298.667z M88.866,85.333c-9.993-0.026-19.584,3.942-26.633,11.025
	c-3.857,3.874-9.097,6.05-14.566,6.042H17.067V34.133h30.601c9.993,0.026,19.584-3.942,26.633-11.025
	c3.857-3.874,9.097-6.05,14.566-6.042H102.4v68.267H88.866z M401.067,315.733c0,14.14-11.46,25.6-25.6,25.6
	c-14.14,0-25.6-11.46-25.6-25.6H401.067z M486.4,187.733c4.71,0,8.533,3.823,8.533,8.533s-3.823,8.533-8.533,8.533h-8.533v-17.067
	H486.4z M349.867,51.2v-8.533c0-14.14,11.46-25.6,25.6-25.6c14.14,0,25.6,11.46,25.6,25.6V51.2H349.867z M366.933,68.267H384
	c39.091,0.051,71.936,29.423,76.322,68.267h-8.055c-14.14,0-25.6-11.46-25.6-25.6c0-4.71-3.823-8.533-8.533-8.533h-17.067
	c-4.71,0-8.533,3.823-8.533,8.533c0,14.14-11.46,25.6-25.6,25.6h-76.322C294.997,97.69,327.842,68.318,366.933,68.267z
	 M264.533,204.8c-4.71,0-8.533-3.823-8.533-8.533s3.823-8.533,8.533-8.533h8.533V204.8H264.533z M290.133,204.8v-51.2h76.8
	c20.267-0.026,37.734-14.285,41.813-34.133h1.707c4.079,19.849,21.547,34.108,41.813,34.133h8.533v51.2
	c0,47.13-38.204,85.333-85.333,85.333S290.133,251.93,290.133,204.8z M332.8,315.733c0,23.561,19.106,42.667,42.667,42.667
	s42.667-19.106,42.667-42.667h19.755l-41.89,76.8h-41.062l-41.89-76.8H332.8z M358.4,409.6h34.133v51.2H358.4V409.6z M102.4,187.733
	h34.133v34.133H102.4V187.733z M144.41,333.773l-37.939-94.839h33.05l31.881,71.731c1.365,3.081,4.429,5.069,7.799,5.069h25.6
	v34.133h-36.625C157.696,349.901,148.267,343.518,144.41,333.773z M494.933,494.933H256V358.4c0-4.71-3.823-8.533-8.533-8.533h-25.6
	v-34.133h71.731l47.735,87.509v66.091c0,4.71,3.823,8.533,8.533,8.533h51.2c4.71,0,8.533-3.823,8.533-8.533v-66.091l47.735-87.509
	h37.598V494.933z"/>
<g>
</g>
<g>
</g>
<g>
</g>
<g>
</g>
<g>
</g>
<g>
</g>
<g>
</g>
<g>
</g>
<g>
</g>
<g>
</g>
<g>
</g>
<g>
</g>
<g>
</g>
<g>
</g>
<g>
</g>
</svg>
